HIERARCHY
ROOT hip
{
	OFFSET 0.000000 0.000000 0.000000 
	CHANNELS 6 Xposition Yposition Zposition Xrotation Zrotation Yrotation
	JOINT abdomen
	{
		OFFSET 0.000000 3.402643 0.000000 
		CHANNELS 3 Xrotation Zrotation Yrotation
		JOINT chest
		{
			OFFSET 0.000000 8.438565 -0.680529 
			CHANNELS 3 Xrotation Zrotation Yrotation
			JOINT neck
			{
				OFFSET 0.000000 10.207942 -0.272212 
				CHANNELS 3 Xrotation Zrotation Yrotation
				JOINT head
				{
					OFFSET 0.000000 3.130431 0.000000 
					CHANNELS 3 Xrotation Zrotation Yrotation
					End Site
					{
						OFFSET 0.000000 3.130435 0.000000 
					}
				}
			}
			JOINT lCollar
			{
				OFFSET 3.470700 6.669187 -0.816635 
				CHANNELS 3 Yrotation Zrotation Xrotation
				JOINT lShldr
				{
					OFFSET 3.198488 0.000000 0.000000 
					CHANNELS 3 Zrotation Yrotation Xrotation
					JOINT lForeArm
					{
						OFFSET 10.139888 0.000000 0.000000 
						CHANNELS 3 Yrotation Zrotation Xrotation
						JOINT lHand
						{
							OFFSET 8.370511 0.000000 0.000000 
							CHANNELS 3 Zrotation Yrotation Xrotation
							End Site
							{
								OFFSET 4.083176 0.000000 0.000000 
							}
						}
					}
				}
			}
			JOINT rCollar
			{
				OFFSET -3.470700 6.669187 -0.816635 
				CHANNELS 3 Yrotation Zrotation Xrotation
				JOINT rShldr
				{
					OFFSET -3.198488 0.000000 0.000000 
					CHANNELS 3 Zrotation Yrotation Xrotation
					JOINT rForeArm
					{
						OFFSET -10.139888 0.000000 0.000000 
						CHANNELS 3 Yrotation Zrotation Xrotation
						JOINT rHand
						{
							OFFSET -8.370511 0.000000 0.000000 
							CHANNELS 3 Zrotation Yrotation Xrotation
							End Site
							{
								OFFSET -4.083176 0.000000 0.000000 
							}
						}
					}
				}
			}
		}
	}
	JOINT lThigh
	{
		OFFSET 5.308129 -1.633274 1.361059 
		CHANNELS 3 Xrotation Zrotation Yrotation
		JOINT lShin
		{
			OFFSET -2.041588 -20.007561 0.000000 
			CHANNELS 3 Xrotation Zrotation Yrotation
			JOINT lFoot
			{
				OFFSET 0.000000 -19.190928 -1.224953 
				CHANNELS 3 Xrotation Yrotation Zrotation
				End Site
				{
					OFFSET 0.000000 -2.449906 4.627600 
				}
			}
		}
	}
	JOINT rThigh
	{
		OFFSET -5.308129 -1.633274 1.361059 
		CHANNELS 3 Xrotation Zrotation Yrotation
		JOINT rShin
		{
			OFFSET 2.041588 -20.007561 0.000000 
			CHANNELS 3 Xrotation Zrotation Yrotation
			JOINT rFoot
			{
				OFFSET 0.000000 -19.190928 -1.224953 
				CHANNELS 3 Xrotation Yrotation Zrotation
				End Site
				{
					OFFSET 0.000000 -2.449906 4.627600 
				}
			}
		}
	}
}
MOTION
Frames: 9
Frame Time: 0.016667
-16.284630 54.979172 8.431273 -23.118755 -12.417990 164.831482 -10.356602 2.340295 -6.079103 0.000000 0.000000 0.000000 -2.717437 -3.770216 8.152359 0.000000 0.000000 0.000000 0.000000 0.000000 0.000000 67.917191 -14.563456 -48.700592 -12.433816 13.366897 -14.133171 26.266481 -11.629117 0.463431 0.000000 0.000000 0.000000 -59.807758 4.238672 -42.991211 11.181074 -19.679033 -21.703064 -19.986511 6.209011 -7.113332 -114.601028 24.160954 -25.724825 128.433807 -3.233871 -30.153397 48.795502 -13.802097 -1.133410 -102.060043 -33.134911 22.961584 134.081436 -4.261890 19.025908 53.899448 16.556009 0.119830 
-15.611377 54.150993 8.336542 -21.262718 -6.441888 170.367966 -6.487163 5.301396 -5.089933 0.000000 0.000000 0.000000 -2.997747 -3.338127 1.838508 0.000000 0.000000 0.000000 0.000000 0.000000 0.000000 64.785484 -17.270569 -47.818069 -15.192333 15.090572 -14.389055 18.697372 -12.392771 -1.653008 0.000000 0.000000 0.000000 -53.787777 3.537086 -38.420242 14.086861 -23.446701 -21.282282 -19.688602 8.256160 -15.985363 -116.252090 25.840736 -30.980532 127.872093 -3.609128 -30.971209 44.669125 -14.702949 -4.969313 -100.881340 -39.237656 26.176020 129.256866 -4.687309 15.892125 45.656395 16.456120 3.386325 
-14.827618 53.350437 8.274961 159.768478 -178.628281 -5.001603 -4.757930 7.956958 -4.239828 0.000000 0.000000 0.000000 -3.479448 -2.076376 -3.420322 0.000000 0.000000 0.000000 0.000000 0.000000 0.000000 52.153927 -17.391836 -37.691513 -33.484486 29.015556 -9.858776 4.708749 -16.580488 -13.328502 0.000000 0.000000 0.000000 -38.907806 4.078297 -31.490614 30.582518 -36.943615 -14.528984 -18.788992 10.105347 -31.460419 -104.533409 26.680313 -28.463867 110.950577 -4.924671 -27.960686 36.935699 -16.063156 -7.936988 -88.332436 -39.461136 16.535114 115.500465 -1.961496 13.028160 35.864830 15.436159 7.122149 
-14.047221 52.544189 8.209072 161.192703 176.435593 -0.293009 -2.959780 10.549196 -3.307778 0.000000 0.000000 0.000000 -4.125432 -0.868880 -8.663178 0.000000 0.000000 0.000000 0.000000 0.000000 0.000000 39.677090 -15.410775 -27.807076 -56.252899 40.470726 0.851850 -8.551087 -23.274000 -23.907591 0.000000 0.000000 0.000000 -24.059183 2.855137 -24.634451 52.800484 -47.703602 -0.998764 -18.357779 12.142257 -46.928238 -92.676315 27.051214 -25.820419 93.875610 -5.371320 -24.718031 29.142635 -17.002724 -11.070279 -76.001892 -38.045330 7.139918 101.587616 0.010161 9.661373 26.288248 13.818478 10.583768 
-13.520984 51.306976 7.817194 161.378433 173.699692 2.948415 -0.241587 11.440899 -2.888062 0.000000 0.000000 0.000000 -9.192309 0.152906 -11.875035 0.000000 0.000000 0.000000 0.000000 0.000000 0.000000 22.318859 -10.030411 -17.501055 -82.307701 37.356915 12.742660 -21.012419 -27.806040 -28.336920 0.000000 0.000000 0.000000 -7.601883 1.944406 -16.419651 77.942940 -47.515320 18.831629 -14.210329 16.634344 -55.944092 -77.233810 26.581835 -23.581728 71.095108 -8.337897 -22.535490 26.004416 -15.869206 -13.301435 -64.134689 -32.536060 0.235637 83.200851 2.558623 8.860128 23.039063 12.348684 12.684190 
-12.995623 50.052090 7.423781 161.714386 170.980591 6.240245 2.475914 12.303550 -2.447885 0.000000 0.000000 0.000000 -14.349097 0.876529 -15.177547 0.000000 0.000000 0.000000 0.000000 0.000000 0.000000 6.314236 -2.118886 -9.280471 -105.269730 30.780708 21.146275 -33.457783 -33.069946 -31.682055 0.000000 0.000000 0.000000 8.569067 -1.164313 -8.711080 100.112923 -41.975803 35.674522 -10.724070 21.615417 -64.591530 -61.993084 25.604843 -21.621256 48.185612 -10.247777 -19.306747 22.882774 -14.584266 -15.448770 -53.772724 -26.070580 -4.865037 64.802025 4.716676 7.297481 19.848978 10.780210 14.678686 
-12.536514 47.459793 6.914279 -18.142750 11.741031 -169.033798 4.241232 12.558397 -3.260231 0.000000 0.000000 0.000000 -22.543001 0.644258 -19.532490 0.000000 0.000000 0.000000 0.000000 0.000000 0.000000 -13.999488 0.250748 3.912895 -95.695572 30.325869 14.665415 -30.520243 -35.244949 -31.876822 0.000000 0.000000 0.000000 24.873379 -1.834891 5.178179 94.720055 -40.502960 32.839081 -5.958605 20.088930 -54.186340 -55.375671 24.208673 -23.029198 38.132912 -10.002695 -15.649286 15.645138 -11.221317 -15.840565 -46.069851 -20.446915 -7.890352 51.432774 5.690962 5.182611 15.514391 7.208731 16.364582 
-12.069427 44.902500 6.420680 -17.716988 14.412126 -164.227142 5.969743 12.810385 -4.074724 0.000000 0.000000 0.000000 -30.618347 -0.214462 -23.789249 0.000000 0.000000 0.000000 0.000000 0.000000 0.000000 -33.286407 6.788363 15.518167 -86.031410 28.885761 8.310713 -27.386553 -37.301830 -32.182575 0.000000 0.000000 0.000000 40.535320 -6.210476 18.325796 89.153297 -38.858341 29.974432 -1.675646 17.719631 -43.942783 -48.869652 22.938944 -24.506701 28.357956 -9.068987 -12.223106 8.441447 -7.840977 -15.753396 -38.981903 -14.568987 -10.018413 38.234322 6.122128 2.963527 11.183922 3.486151 17.717125 
-11.000157 44.947281 7.114864 -13.527479 13.940907 -157.596527 6.131628 11.400656 -5.130562 0.000000 0.000000 0.000000 -33.055058 -2.351567 -26.909588 0.000000 0.000000 0.000000 0.000000 0.000000 0.000000 -47.778374 3.355499 23.860813 -57.039497 17.824656 -1.834281 -17.240250 -31.270823 -29.687614 0.000000 0.000000 0.000000 51.006451 -5.368859 27.685499 56.107479 -32.702633 7.778298 -4.301586 9.770726 -25.303368 -48.930889 20.126480 -20.261881 35.702637 -4.206404 -17.893574 -1.797845 -6.120011 -12.076288 -35.640537 -12.830170 -10.049367 41.589848 5.781131 2.592525 -2.092038 -3.641495 14.885765 
